<!--?xml version="1.0" encoding="utf-8"?-->
<!-- Generator: Adobe Illustrator 19.1.1, SVG Export Plug-In . SVG Version: 6.00 Build 0)  -->
<svg version="1.1" id="_x31_0" xmlns="http://www.w3.org/2000/svg" xmlns:xlink="http://www.w3.org/1999/xlink" x="0px" y="0px" viewBox="0 0 512 512" style="width: 256px; height: 256px; opacity: 1;" xml:space="preserve">
<style type="text/css">
	.st0{fill:#374149;}
</style>
<g>
	<path class="st0" d="M512,107.726l-0.058,0.023v-0.172L393.389,154.92l-1.684,0.668v0.004l-0.148,0.058l0.394,0.953l0.004,0.008
		l-37.996,8.96c-1.999,0.48-3.597,1.758-4.636,3.519c-1.042,1.839-1.199,3.839-0.562,5.839l0.328,0.874l0.074,0.379l-81.116-23.166
		c-3.515-1.004-7.288-0.582-10.49,1.176l-27.021,14.814l-74.198,10.038l-9.796,1.305c-0.004-1.117-0.398-2.308-0.957-3.262
		c-1.121-1.922-2.878-3.12-4.96-3.601l-7.914-1.426l-29.172-5.858l0.05-0.153l-78.358-26.505L0.16,131.013v0.054L0,131.013v177.979
		l65.274,2.082l0.321-1.038l28.157,2.238h0.64c1.359,0,2.718-0.32,3.84-1.039l10.214,5.266l0.023,0.011l-3.437,6.402
		c-3.121,5.762-1.043,12.8,4.64,15.917l8.479,4.48c4.59,2.53,9.979,1.534,13.561-1.801c0.035-0.027,0.062-0.058,0.098-0.086
		c0.301-0.285,0.586-0.586,0.856-0.906c0.293-0.305,0.601-0.586,0.863-0.914c-2.539,5.605-0.461,12.249,5.018,15.069l8.398,4.636
		c4.59,2.461,10.089,1.457,13.706-2.019c0.035-0.027,0.066-0.058,0.098-0.086c0.316-0.313,0.617-0.645,0.902-1
		c0.309-0.336,0.644-0.645,0.918-1.012c-1.906,5.378,0.145,11.526,5.335,14.276l8.48,4.562c3.761,2.141,8.198,1.66,11.686-0.562
		c0.809-0.472,1.594-1.007,2.32-1.632c-0.266,4.433,2.031,8.776,6.07,11.073l8.402,4.558c5.758,3.039,12.878,0.961,15.916-4.718
		l3.679-6.718l49.757,25.755c3.679,1.839,7.6,2.64,11.44,2.64c6.956,0,13.756-2.718,18.716-8.159l56.9-62.138l29.118-31.68
		l1.492,4.949c1.039,2.961,3.84,4.878,6.96,4.878c0.641,0,1.199-0.082,1.918-0.238l40.315-11.44l9.273,27.196l0.273,0.813
		l0.004-0.004l0.051,0.152l61.27-22.876V161.446L512,107.726z M311.457,353.913c-0.328-0.531-0.946-0.855-1.492-1.324
		l-46.608-29.403c-0.988-0.621-2.278-0.453-3.074,0.402l-7.815,8.441c-1.031,1.113-0.801,2.89,0.484,3.698L293.56,361.4l7.14,4.546
		l-13.53,14.639c-0.641,0.64-1.602,0.878-2.32,0.398l-48.49-24.872l-0.946-0.489l1.121-2.074c1.121-2,1.758-4.242,1.918-6.402
		c0.563-6.32-2.636-12.718-8.635-15.998c-1.523-0.797-3.121-1.359-4.722-1.598c-4.222-0.874-8.471,0.051-11.979,2.382
		c-0.312,0.176-0.648,0.27-0.953,0.462l3.094-5.805c4.242-8.081,1.359-18.079-6.64-22.318c-2.476-1.441-5.277-2.082-7.839-2.082
		c-4.538,0-8.878,1.945-12.022,5.293c-0.793,0.785-1.523,1.632-2.168,2.562c3.098-7.597,0.066-16.482-7.327-20.65
		c-6.382-3.289-13.862-2.137-18.865,2.406c-0.157,0.133-0.305,0.266-0.458,0.402c-0.41,0.402-0.785,0.84-1.156,1.293
		c-0.301,0.332-0.621,0.641-0.898,1l0.821-1.422c4.238-8.082,1.277-17.998-6.722-22.318c-8.077-4.398-18.154-1.442-22.396,6.558
		l-10.077,18.721l-11.838-6.16l31.035-86.15h8.8l31.942-4.281l18.162-2.343l-13.467,25.982c-4.562,9.28-0.562,20.236,8.878,24.395
		c2.32,1.039,4.8,1.52,7.12,1.52c5.758,0,11.277-2.718,14.795-7.597l16.158-23.439l34.558-6.479l44.874,25.837l19.357,11.198
		l44.315,25.598l3.602,7.359l-17.202,18.88L312.55,270.07c-0.989-0.621-2.278-0.453-3.07,0.402l-7.78,8.05
		c-1.031,1.113-0.801,2.89,0.484,3.702l40.691,25.661l6.655,4.234l-12.366,13.83l-48.214-30.438
		c-0.984-0.625-2.277-0.457-3.074,0.398l-8.25,8.69c-1.03,1.114-0.797,2.894,0.489,3.703l40.667,25.594l6.917,4.386l-10.944,12.061
		L311.457,353.913z M129.579,186.31L89.431,297.396l-18.076-1.52l-1.961-0.226l-0.117-0.027L99.59,181.006l5.038,0.801l21.517,3.863
		L129.579,186.31z M436.422,286.834l-32.867,9.358l-38.316-117.584l-0.238-0.641l31.677-7.518l37.878,110.897L436.422,286.834z" style="fill: rgb(222, 244, 198);"></path>
</g>
</svg>
