<!--?xml version="1.0" encoding="utf-8"?-->
<!-- Generator: Adobe Illustrator 19.1.1, SVG Export Plug-In . SVG Version: 6.00 Build 0)  -->
<svg version="1.1" id="_x31_0" xmlns="http://www.w3.org/2000/svg" xmlns:xlink="http://www.w3.org/1999/xlink" x="0px" y="0px" viewBox="0 0 512 512" style="width: 256px; height: 256px; opacity: 1;" xml:space="preserve">
<style type="text/css">
	.st0{fill:#374149;}
</style>
<g>
	<path class="st0" d="M472.687,155.93l-0.007,0.012c-4.047,4.039-4.734,10.457-1.383,15.09
		c11.054,15.258,17.023,33.492,17.023,52.59c0,19.137-5.949,37.383-16.972,52.629c-3.34,4.626-2.661,11.039,1.378,15.07
		c5.141,5.145,13.715,4.504,17.969-1.398c13.84-19.218,21.301-42.195,21.305-66.301c0-24.106-7.484-47.086-21.359-66.297
		C486.386,151.438,477.832,150.797,472.687,155.93z" style="fill: rgb(222, 244, 198);"></path>
	<path class="st0" d="M440.953,223.621c0,6.86-1.617,13.481-4.66,19.43c-2.375,4.626-1.613,10.223,2.062,13.898l0.016,0.012
		c5.558,5.558,15.054,4.348,18.714-2.606c4.938-9.382,7.547-19.863,7.547-30.738c0-10.874-2.617-21.363-7.558-30.746
		c-3.657-6.95-13.149-8.168-18.707-2.622l-0.047,0.047c-3.687,3.68-4.449,9.301-2.058,13.934
		C439.332,210.18,440.953,216.789,440.953,223.621z" style="fill: rgb(222, 244, 198);"></path>
	<path class="st0" d="M39.274,291.32c4.035-4.031,4.718-10.445,1.382-15.07c-11.027-15.246-16.976-33.492-16.976-52.629
		c0-19.098,5.969-37.332,17.019-52.59c3.351-4.633,2.668-11.05-1.379-15.09l-0.007-0.012c-5.145-5.133-13.699-4.492-17.958,1.394
		C7.484,176.535,0,199.515,0,223.621c0.004,24.106,7.465,47.082,21.309,66.301C25.558,295.824,34.133,296.465,39.274,291.32z" style="fill: rgb(222, 244, 198);"></path>
	<path class="st0" d="M73.629,256.961l0.016-0.012c3.672-3.675,4.434-9.273,2.062-13.898c-3.043-5.949-4.664-12.57-4.664-19.43
		c0-6.832,1.629-13.441,4.695-19.39c2.39-4.633,1.629-10.254-2.062-13.934l-0.047-0.047c-5.554-5.546-15.046-4.328-18.703,2.622
		c-4.942,9.382-7.562,19.871-7.562,30.746c0,10.875,2.614,21.356,7.551,30.738C58.57,261.309,68.07,262.519,73.629,256.961z" style="fill: rgb(222, 244, 198);"></path>
	<path class="st0" d="M184.676,298.238c19.91,5.082,44.606,8.102,71.363,8.102c26.726,0,51.394-3.02,71.281-8.066
		c3.422-0.871,5.539-4.242,4.914-7.719c-0.324-1.82-0.734-3.586-1.195-5.297c-0.383-1.414-0.786-2.77-1.274-4.074
		c-0.465-1.441-1.008-2.797-1.578-4.105c-2.5-5.918-5.538-10.402-7.961-12.606c-3.098-2.852-17.113-9.965-29.062-16.051
		c-8.722-4.484-13.637-8.367-15.05-9.644v-7.551v-4.156c0.652-0.246,1.273-0.707,1.87-1.359c0.106-0.11,0.219-0.215,0.298-0.356
		c1.656-1.871,3.019-3.992,3.695-5.973c0.086-0.242,0.164-0.488,0.25-0.73c1.489-4.238,2.633-9.019,2.852-10.382
		c0.011-0.074,0.015-0.129,0.023-0.188c0.015-0.046,0.031-0.121,0.043-0.16c0.621,0.184,1.21,0.266,1.718,0.266
		c6.309,0,8.887-12.902,9.246-16.297c0.374-3.422-2.668-5.758-3.786-6.656c0.25-0.543,0.551-1.355,0.848-2.305
		c0.027-0.058,0.054-0.141,0.078-0.218c0.382-1.172,0.922-2.742,1.414-4.942c0.297-1.309,0.57-2.855,0.817-4.676
		c0.164-1.113,0.191-2.313,0.136-3.477c-0.086-2.445-0.598-4.972-1.5-7.281c-0.726-2.012-1.758-3.859-3.011-5.352l-0.027-0.027
		c-0.867-1.031-1.844-2.094-2.875-3.042c-4.074-3.938-8.89-7.118-11.141-7.118c-4.562-8.203-10.402-13.527-21.214-14.258
		c-0.653-0.031-1.301-0.031-2.012-0.055h-0.137c-8.149,0-21.894,7.004-28.898,16.566c0,0.031,0,0.031,0,0.031
		c-0.707,0.95-1.34,1.926-1.879,2.902c-0.922,1.688-1.762,3.262-2.469,4.758c-1.144,2.414-2.011,4.672-2.554,6.926
		c-0.328,1.058-0.547,2.145-0.652,3.258c-0.462,3.153-0.383,6.492,0.242,10.512v0.031c0.246,1.652,0.57,3.449,1.008,5.375
		c0.027,0.027,0.027,0.058,0.027,0.086c0.203,0.594,0.379,0.988,0.562,1.442c0.051,0.347,0.024,0.738-0.046,1.16
		c-1.222,0.922-3.367,2.406-3.07,5.492c0.324,3.164,2.274,15.027,7.55,16.809c0.059,0.019,0.13,0.035,0.192,0.05
		c0.367,0.106,0.71,0.305,1.113,0.305c0.57,0,1.168-0.082,1.821-0.27c0.109,1.09,0.679,4.184,1.843,7.336
		c0.329,0.922,0.711,2.09,1.118,3.313c0.078,0.246,0.16,0.461,0.246,0.707c0.676,1.957,1.954,4.074,3.555,5.894
		c0.164,0.187,0.351,0.382,0.515,0.57c0.602,0.625,1.223,1.086,1.875,1.332v4.074v7.633c-1.382,1.277-6.328,5.191-15.023,9.644
		c-11.95,6.11-25.91,13.23-29.012,16.051c-2.414,2.175-5.457,6.687-7.98,12.606c-0.543,1.308-1.09,2.664-1.582,4.105
		c-0.461,1.305-0.89,2.661-1.246,4.074c-0.488,1.711-0.87,3.477-1.199,5.297C179.156,294.031,181.282,297.371,184.676,298.238z" style="fill: rgb(222, 244, 198);"></path>
	<path class="st0" d="M152.656,40.664c-11.633,0-22.824,4.66-31.054,12.89c-8.226,8.23-12.832,19.367-12.832,30.996v342.895
		c0,24.195,19.637,43.89,43.886,43.89h206.688c24.195,0,43.89-19.695,43.89-43.89V84.61c0-24.25-19.695-43.891-43.89-43.891
		L152.656,40.664z M271.742,427.446c-3.836,4.39-9.485,7.133-15.746,7.133c-6.246,0-11.898-2.742-15.742-7.133
		c-3.183-3.672-5.16-8.45-5.16-13.715c0-11.519,9.387-20.848,20.902-20.848c11.52,0,20.852,9.329,20.852,20.848
		C276.848,418.996,274.93,423.774,271.742,427.446z M359.344,361.996v0.715H152.656V84.55l206.688,0.059V361.996z" style="fill: rgb(222, 244, 198);"></path>
</g>
</svg>
