<?xml version="1.0" encoding="UTF-8" standalone="no"?>
<!--?xml version="1.0" encoding="utf-8"?-->

<!-- Generator: Adobe Illustrator 18.1.1, SVG Export Plug-In . SVG Version: 6.00 Build 0)  -->

<svg
   version="1.1"
   id="_x31_0"
   x="0px"
   y="0px"
   viewBox="0 0 512 512"
   style="opacity:1"
   xml:space="preserve"
   sodipodi:docname="chat.svg"
   inkscape:export-filename="C:\xampp\htdocs\syuboard\project\images\header\chat.png"
   inkscape:export-xdpi="96"
   inkscape:export-ydpi="96"
   inkscape:version="1.1.1 (3bf5ae0d25, 2021-09-20)"
   width="512"
   height="512"
   xmlns:inkscape="http://www.inkscape.org/namespaces/inkscape"
   xmlns:sodipodi="http://sodipodi.sourceforge.net/DTD/sodipodi-0.dtd"
   xmlns="http://www.w3.org/2000/svg"
   xmlns:svg="http://www.w3.org/2000/svg"><defs
   id="defs13" /><sodipodi:namedview
   id="namedview11"
   pagecolor="#ffffff"
   bordercolor="#666666"
   borderopacity="1.0"
   inkscape:pageshadow="2"
   inkscape:pageopacity="0.0"
   inkscape:pagecheckerboard="0"
   showgrid="false"
   inkscape:zoom="1.1076165"
   inkscape:cx="266.33768"
   inkscape:cy="203.59033"
   inkscape:window-width="1920"
   inkscape:window-height="991"
   inkscape:window-x="-9"
   inkscape:window-y="-9"
   inkscape:window-maximized="1"
   inkscape:current-layer="g8"
   width="511px" />
<style
   type="text/css"
   id="style2">
	.st0{fill:#374149;}
</style>
<g
   id="g8">
	<path
   class="st0"
   d="m 220.88158,354.44493 c -1.91055,0.40194 -3.85891,0.7267 -5.80024,1.05919 -1.76015,0.30477 -3.52332,0.57629 -5.29831,0.82346 -3.948,0.5484 -7.94651,0.95904 -11.9994,1.22543 -1.73244,0.11681 -3.47283,0.20166 -5.21714,0.26717 -2.06916,0.0712 -4.13808,0.15436 -6.22988,0.15436 -1.0099,0 -2.05708,-0.0395 -3.06692,-0.0395 l -33.62428,26.23163 -16.88388,13.07848 -7.09215,-50.48831 C 76.68576,327.69997 42.720974,286.24508 42.720974,238.19299 c 0,-66.17739 64.317206,-119.81682 143.614626,-119.81682 15.95535,0 31.32261,2.17298 45.64645,6.21007 10.93221,-8.28306 23.07914,-15.37816 36.08434,-21.2457 2.57987,-1.13252 5.13893,-2.29277 7.78413,-3.30254 -0.0415,-0.0189 -0.0832,-0.0348 -0.12274,-0.05323 0.0652,-0.02692 0.1267,-0.06135 0.19199,-0.0853 -27.05437,-13.275516 -57.75523,-20.340918 -89.5847,-20.340918 -47.39076,0 -92.298689,15.681093 -126.380335,44.092174 -36.134865,30.15938 -56.0470839,70.79854 -56.0470839,114.54326 0,55.34912 33.1867179,106.23546 86.2470039,134.84358 l 4.191526,29.69211 c 1.902706,13.73877 11.021299,25.42535 23.872079,30.58799 4.69444,1.89869 9.62447,2.83034 14.5555,2.83034 8.53847,0 16.96115,-2.7917 23.87111,-8.19101 l 40.21047,-31.39978 c 18.78666,-0.92064 37.01497,-4.44397 54.28197,-10.13923 3.78561,-1.21753 7.58317,-2.42146 11.28366,-3.84706 -0.0454,-0.0197 -0.0911,-0.0455 -0.13263,-0.0694 0.0674,-0.0279 0.13658,-0.0415 0.20168,-0.0691 -15.37122,-7.56926 -29.42088,-17.00464 -41.60933,-27.98738 z"
   style="fill:#def4c6;stroke-width:0.989965"
   id="path4" />
	<path
   class="st0"
   d="m 351.63056,108.8863 c -87.74776,0 -159.13732,60.70978 -159.13732,135.3316 0,74.00011 70.2026,134.31888 156.9525,135.3128 l 46.21066,36.09124 c 2.77686,2.16512 6.14871,3.28672 9.56019,3.28672 1.9642,0 3.93604,-0.37007 5.81508,-1.12865 5.14379,-2.08096 8.78589,-6.74464 9.55607,-12.23994 l 5.87451,-41.85287 c 51.51696,-23.34939 84.30968,-69.38983 84.30968,-119.46936 0,-74.62182 -71.39059,-135.3316 -159.14137,-135.33162 z m 8.95624,201.49711 h -71.52912 c -4.92314,0 -8.91365,-3.99057 -8.91365,-8.9097 0,-4.92707 3.99051,-8.91367 8.91365,-8.91367 h 71.52912 c 4.92312,0 8.9137,3.9866 8.9137,8.91367 0,4.91913 -3.99058,8.9097 -8.9137,8.9097 z m -80.44277,-52.48317 c 0,-4.92312 3.99051,-8.91367 8.91365,-8.91367 h 125.14979 c 4.91909,0 8.9097,3.99055 8.9097,8.91367 0,4.91816 -3.99061,8.90971 -8.9097,8.90971 H 289.05768 c -4.92314,0 -8.91365,-3.99155 -8.91365,-8.90971 z m 134.06344,-34.6647 H 289.05768 c -4.92314,0 -8.91365,-3.99056 -8.91365,-8.90974 0,-4.92311 3.99051,-8.91366 8.91365,-8.91366 h 125.14979 c 4.91909,0 8.9097,3.99055 8.9097,8.91366 0,4.91918 -3.99061,8.90974 -8.9097,8.90974 z"
   style="fill:#def4c6;stroke-width:0.989965"
   id="path6" />
</g>
</svg>
