<!--?xml version="1.0" encoding="utf-8"?-->
<!-- Generator: Adobe Illustrator 18.1.1, SVG Export Plug-In . SVG Version: 6.00 Build 0)  -->

<svg version="1.1" id="_x31_0" xmlns="http://www.w3.org/2000/svg" xmlns:xlink="http://www.w3.org/1999/xlink" x="0px" y="0px" viewBox="0 0 512 512" style="width: 256px; height: 256px; opacity: 1;" xml:space="preserve">
<style type="text/css">
	.st0{fill:#374149;}
</style>
<g>
	<path class="st0" d="M219.172,353.57c-1.93,0.406-3.898,0.734-5.859,1.07c-1.778,0.308-3.559,0.582-5.352,0.832
		c-3.988,0.554-8.027,0.969-12.121,1.238c-1.75,0.117-3.508,0.203-5.27,0.27c-2.09,0.074-4.18,0.156-6.293,0.156
		c-1.02,0-2.078-0.039-3.098-0.039l-33.965,26.496l-17.055,13.211l-7.164-51c-49.48-19.25-83.789-61.125-83.789-109.664
		c0-66.848,64.969-121.031,145.07-121.031c16.117,0,31.64,2.195,46.109,6.273c11.043-8.367,23.313-15.534,36.45-21.461
		c2.606-1.144,5.191-2.316,7.863-3.336c-0.043-0.019-0.086-0.035-0.125-0.054c0.066-0.027,0.129-0.062,0.195-0.086
		c-27.328-13.41-58.34-20.547-90.492-20.547c-47.871,0-93.234,15.84-127.661,44.539C20.114,150.902,0,191.953,0,236.141
		c0,55.91,33.523,107.312,87.121,136.21l4.234,29.993c1.922,13.878,11.133,25.683,24.114,30.898
		c4.742,1.918,9.722,2.859,14.703,2.859c8.625,0,17.133-2.82,24.113-8.274l40.618-31.718c18.977-0.93,37.39-4.489,54.832-10.242
		c3.824-1.23,7.66-2.446,11.398-3.886c-0.047-0.02-0.09-0.047-0.133-0.07c0.066-0.028,0.137-0.043,0.203-0.07
		C245.676,374.195,231.484,364.664,219.172,353.57z" style="fill: rgb(222, 244, 198);"></path>
	<path class="st0" d="M351.246,105.523c-88.637,0-160.75,61.325-160.75,136.703c0,74.75,70.914,135.68,158.543,136.684
		l46.679,36.457c2.805,2.187,6.211,3.32,9.657,3.32c1.984,0,3.976-0.374,5.874-1.14c5.196-2.102,8.875-6.813,9.653-12.364
		l5.934-42.277C478.875,339.32,512,292.813,512,242.226C512,166.848,439.886,105.523,351.246,105.523z M360.293,309.062h-72.254
		c-4.973,0-9.004-4.031-9.004-9c0-4.977,4.031-9.004,9.004-9.004h72.254c4.973,0,9.004,4.027,9.004,9.004
		C369.297,305.031,365.266,309.062,360.293,309.062z M279.035,256.047c0-4.973,4.031-9.004,9.004-9.004h126.418
		c4.969,0,9,4.031,9,9.004c0,4.968-4.031,9-9,9H288.039C283.066,265.047,279.035,261.015,279.035,256.047z M414.457,221.031H288.039
		c-4.973,0-9.004-4.031-9.004-9c0-4.973,4.031-9.004,9.004-9.004h126.418c4.969,0,9,4.031,9,9.004
		C423.457,217,419.426,221.031,414.457,221.031z" style="fill: rgb(222, 244, 198);"></path>
</g>
</svg>
