<?xml version="1.0" encoding="UTF-8" standalone="no"?>
<!--?xml version="1.0" encoding="utf-8"?-->

<!-- Generator: Adobe Illustrator 18.1.1, SVG Export Plug-In . SVG Version: 6.00 Build 0)  -->

<svg
   version="1.1"
   id="_x31_0"
   x="0px"
   y="0px"
   viewBox="0 0 35 30"
   style="opacity:1"
   xml:space="preserve"
   sodipodi:docname="chat.svg"
   inkscape:export-filename="C:\xampp\htdocs\syuboard\project\images\header\chat.png"
   inkscape:export-xdpi="96"
   inkscape:export-ydpi="96"
   inkscape:version="1.1 (c68e22c387, 2021-05-23)"
   width="35"
   height="30"
   xmlns:inkscape="http://www.inkscape.org/namespaces/inkscape"
   xmlns:sodipodi="http://sodipodi.sourceforge.net/DTD/sodipodi-0.dtd"
   xmlns="http://www.w3.org/2000/svg"
   xmlns:svg="http://www.w3.org/2000/svg"><defs
   id="defs13" /><sodipodi:namedview
   id="namedview11"
   pagecolor="#ffffff"
   bordercolor="#666666"
   borderopacity="1.0"
   inkscape:pageshadow="2"
   inkscape:pageopacity="0.0"
   inkscape:pagecheckerboard="0"
   showgrid="false"
   inkscape:zoom="12.53125"
   inkscape:cx="23.381546"
   inkscape:cy="9.6957605"
   inkscape:window-width="1920"
   inkscape:window-height="991"
   inkscape:window-x="-9"
   inkscape:window-y="-9"
   inkscape:window-maximized="1"
   inkscape:current-layer="g8"
   width="511px" />
<style
   type="text/css"
   id="style2">
	.st0{fill:#374149;}
</style>
<g
   id="g8">
	<path
   class="st0"
   d="m 15.774109,13.998588 c -0.09654,0.02031 -0.194989,0.03672 -0.293084,0.05352 -0.08894,0.0154 -0.178032,0.02912 -0.267722,0.04161 -0.199491,0.02771 -0.401534,0.04846 -0.606325,0.06192 -0.08754,0.0059 -0.175481,0.01019 -0.263621,0.0135 -0.104553,0.0036 -0.209096,0.0078 -0.314793,0.0078 -0.05103,0 -0.103944,-0.002 -0.15497,-0.002 l -1.699024,1.325476 -0.853137,0.660851 -0.358364,-2.551157 C 8.4879436,12.647172 6.7717146,10.552471 6.7717146,8.1244151 c 0,-3.3439205 3.2499264,-6.0543026 7.2567984,-6.0543026 0.806218,0 1.58272,0.1098 2.306499,0.3137927 0.552401,-0.4185403 1.166181,-0.7770533 1.82333,-1.0735381 0.130359,-0.057226 0.259668,-0.1158528 0.393329,-0.166876 -0.0021,-9.527e-4 -0.0042,-0.00176 -0.0062,-0.00269 0.0033,-0.00136 0.0064,-0.0031 0.0097,-0.00431 -1.367049,-0.67080533 -2.918353,-1.02781764 -4.526685,-1.02781764 -2.394639,0 -4.6638214,0.79236025 -6.3859553,2.22796274 -1.8258824,1.5239428 -2.83204,3.5774262 -2.83204,5.7878315 0,2.7967723 1.6769135,5.3680413 4.3580316,6.8136003 L 9.3803187,16.4384 c 0.096143,0.694215 0.5569024,1.284734 1.2062483,1.545601 0.237208,0.09594 0.486321,0.143016 0.735484,0.143016 0.431446,0 0.857041,-0.141064 1.206199,-0.413889 l 2.031822,-1.58662 c 0.949283,-0.04652 1.870353,-0.224553 2.742849,-0.512333 0.191286,-0.06152 0.383175,-0.122355 0.570159,-0.19439 -0.0023,-10e-4 -0.0046,-0.0023 -0.0067,-0.0035 0.0034,-0.0014 0.0069,-0.0021 0.01019,-0.0035 -0.776702,-0.382473 -1.486626,-0.859239 -2.102505,-1.414193 z"
   style="fill:#def4c6;stroke-width:0.0500226"
   id="path4" />
	<path
   class="st0"
   d="m 22.380811,1.5905945 c -4.433865,0 -8.041155,3.0676443 -8.041155,6.8382597 0,3.7391998 3.547313,6.7870868 7.930756,6.8373088 l 2.335009,1.823679 c 0.140314,0.109402 0.310692,0.166076 0.483073,0.166076 0.09925,0 0.198888,-0.0187 0.293833,-0.05703 0.259916,-0.10515 0.44395,-0.340804 0.482867,-0.61848 l 0.296836,-2.114811 c 2.603133,-1.179837 4.260139,-3.506244 4.260139,-6.0367459 0,-3.7706154 -3.607341,-6.8382598 -8.041358,-6.8382606 z m 0.452555,10.1815795 h -3.614342 c -0.248764,0 -0.450404,-0.201642 -0.450404,-0.450203 0,-0.248964 0.20164,-0.450406 0.450404,-0.450406 h 3.614342 c 0.248764,0 0.450406,0.201442 0.450406,0.450406 0,0.248561 -0.201642,0.450203 -0.450406,0.450203 z M 18.76862,9.1202181 c 0,-0.2487636 0.20164,-0.4504048 0.450404,-0.4504048 h 6.323777 c 0.248559,0 0.450204,0.2016412 0.450204,0.4504048 0,0.2485131 -0.201645,0.4502045 -0.450204,0.4502045 h -6.323777 c -0.248764,0 -0.450404,-0.2016914 -0.450404,-0.4502045 z m 6.774181,-1.7515956 h -6.323777 c -0.248764,0 -0.450404,-0.201642 -0.450404,-0.4502059 0,-0.2487638 0.20164,-0.4504044 0.450404,-0.4504044 h 6.323777 c 0.248559,0 0.450204,0.2016406 0.450204,0.4504044 0,0.2485639 -0.201645,0.4502059 -0.450204,0.4502059 z"
   style="fill:#def4c6;stroke-width:0.0500226"
   id="path6" />
<text
   xml:space="preserve"
   style="font-size:8.81126px;line-height:1.25;font-family:Meiryo;-inkscape-font-specification:Meiryo;letter-spacing:0px;word-spacing:0px;fill:#def4c6;fill-opacity:1;stroke-width:0.220283"
   x="-0.14565481"
   y="29.25543"
   id="text2427"><tspan
     sodipodi:role="line"
     id="tspan2425"
     x="-0.14565481"
     y="29.25543"
     style="fill:#def4c6;fill-opacity:1;stroke-width:0.220283">チャット</tspan></text></g>
</svg>
