<?xml version="1.0" encoding="UTF-8" standalone="no"?>
<!--?xml version="1.0" encoding="utf-8"?-->

<!-- Generator: Adobe Illustrator 18.1.1, SVG Export Plug-In . SVG Version: 6.00 Build 0)  -->

<svg
   version="1.1"
   id="_x32_"
   x="0px"
   y="0px"
   viewBox="0 0 30 30"
   style="opacity:1"
   xml:space="preserve"
   sodipodi:docname="callout.svg"
   width="30"
   height="30"
   inkscape:version="1.1 (c68e22c387, 2021-05-23)"
   inkscape:export-filename="C:\xampp\htdocs\syuboard\project\images\telephone\callout.png"
   inkscape:export-xdpi="96"
   inkscape:export-ydpi="96"
   xmlns:inkscape="http://www.inkscape.org/namespaces/inkscape"
   xmlns:sodipodi="http://sodipodi.sourceforge.net/DTD/sodipodi-0.dtd"
   xmlns="http://www.w3.org/2000/svg"
   xmlns:svg="http://www.w3.org/2000/svg"><defs
   id="defs11" /><sodipodi:namedview
   id="namedview9"
   pagecolor="#ffffff"
   bordercolor="#666666"
   borderopacity="1.0"
   inkscape:pageshadow="2"
   inkscape:pageopacity="0.0"
   inkscape:pagecheckerboard="0"
   showgrid="false"
   inkscape:zoom="17.721864"
   inkscape:cx="13.711876"
   inkscape:cy="15.545769"
   inkscape:window-width="1920"
   inkscape:window-height="991"
   inkscape:window-x="-9"
   inkscape:window-y="-9"
   inkscape:window-maximized="1"
   inkscape:current-layer="g6" />
<style
   type="text/css"
   id="style2">
	.st0{fill:#4B4B4B;}
</style>
<g
   id="g6">
	<path
   class="st0"
   d="m 2.4794226,20.325694 c 1.3241006,-0.126995 4.7638703,-1.234649 5.4661177,-1.658034 0.702333,-0.422646 0.8592651,-1.649281 0.3838632,-2.522889 -0.4750801,-0.874052 -0.052957,-1.156175 -0.052957,-1.156175 0,0 1.8716345,-0.830638 6.8349675,-0.760243 4.96333,0.0704 6.810607,0.953986 6.810607,0.953986 0,0 0.414154,0.294355 -0.08601,1.155044 -0.499494,0.859229 -0.378088,2.089793 0.312301,2.532269 0.689308,0.443644 4.09679,1.648603 5.416043,1.812855 1.319818,0.162762 2.107359,-1.343346 2.183347,-1.775572 0.07634,-0.432642 1.111222,-4.752616 -2.75207,-7.12051 C 23.131653,9.4192526 18.949962,8.581393 15.192656,8.5278929 11.435425,8.4744552 7.230859,9.1924556 3.3012074,11.449492 c -3.92892941,2.256277 -3.01761115,6.604585 -2.95350145,7.038926 0.0637005,0.434047 0.80819655,1.962008 2.13171835,1.837276 z"
   style="fill:#def4c6;stroke-width:0.0497773"
   id="path4" />
</g>
</svg>
