<?xml version="1.0" encoding="UTF-8" standalone="no"?>
<!--?xml version="1.0" encoding="utf-8"?-->

<!-- Generator: Adobe Illustrator 15.1.0, SVG Export Plug-In . SVG Version: 6.00 Build 0)  -->

<svg
   version="1.1"
   id="_x32_"
   x="0px"
   y="0px"
   width="30"
   height="30"
   viewBox="0 0 30 30"
   style="opacity:1"
   xml:space="preserve"
   sodipodi:docname="cameraoff.svg"
   inkscape:version="1.1 (c68e22c387, 2021-05-23)"
   inkscape:export-filename="C:\xampp\htdocs\syuboard\project\images\telephone\cameraoff.png"
   inkscape:export-xdpi="96"
   inkscape:export-ydpi="96"
   xmlns:inkscape="http://www.inkscape.org/namespaces/inkscape"
   xmlns:sodipodi="http://sodipodi.sourceforge.net/DTD/sodipodi-0.dtd"
   xmlns="http://www.w3.org/2000/svg"
   xmlns:svg="http://www.w3.org/2000/svg"><defs
   id="defs13" /><sodipodi:namedview
   id="namedview11"
   pagecolor="#ffffff"
   bordercolor="#666666"
   borderopacity="1.0"
   inkscape:pageshadow="2"
   inkscape:pageopacity="0.0"
   inkscape:pagecheckerboard="0"
   showgrid="false"
   width="30px"
   inkscape:zoom="11.313709"
   inkscape:cx="21.124814"
   inkscape:cy="23.467105"
   inkscape:window-width="1920"
   inkscape:window-height="991"
   inkscape:window-x="-9"
   inkscape:window-y="-9"
   inkscape:window-maximized="1"
   inkscape:current-layer="_x32_" />
<style
   type="text/css"
   id="style2">

	.st0{fill:#4B4B4B;}

</style>
<g
   id="g8"
   transform="matrix(0.05799175,0,0,0.05799175,0.1553301,0.24084205)">
	<path
   class="st0"
   d="M 284.719,129.453 H 25.344 C 11.344,129.453 0,140.781 0,154.781 v 202.422 c 0,14 11.344,25.344 25.344,25.344 h 259.375 c 14,0 25.344,-11.344 25.344,-25.344 V 154.781 c 0,-14 -11.344,-25.328 -25.344,-25.328 z"
   style="fill:#389b72"
   id="path4" />
	<path
   class="st0"
   d="m 502.313,174.547 c -6.125,-4.797 -14.094,-6.516 -21.656,-4.688 L 357,199.984 c -11.375,2.766 -19.359,12.938 -19.359,24.641 v 60 c 0,11.688 7.984,21.859 19.359,24.625 l 123.656,30.141 c 7.563,1.813 15.531,0.094 21.656,-4.703 6.109,-4.813 9.688,-12.156 9.688,-19.922 V 194.484 c 0,-7.781 -3.578,-15.125 -9.687,-19.937 z"
   style="fill:#389b72"
   id="path6" />
</g>
<path
   style="fill:none;stroke:#389b72;stroke-width:2.5;stroke-linecap:butt;stroke-linejoin:miter;stroke-opacity:1;stroke-miterlimit:4;stroke-dasharray:none"
   d="M 3.7123104,3.0052037 25.721008,27.488775"
   id="path857"
   inkscape:export-filename="C:\xampp\htdocs\syuboard\project\images\telephone\cameraoff.png"
   inkscape:export-xdpi="96"
   inkscape:export-ydpi="96" /></svg>
