<?xml version="1.0" encoding="UTF-8" standalone="no"?>
<!--?xml version="1.0" encoding="utf-8"?-->

<!-- Generator: Adobe Illustrator 18.1.1, SVG Export Plug-In . SVG Version: 6.00 Build 0)  -->

<svg
   version="1.1"
   id="_x32_"
   x="0px"
   y="0px"
   viewBox="0 0 30 30"
   style="opacity:1"
   xml:space="preserve"
   sodipodi:docname="micoff.svg"
   width="30"
   height="30"
   inkscape:version="1.1 (c68e22c387, 2021-05-23)"
   inkscape:export-filename="C:\xampp\htdocs\syuboard\project\images\telephone\micoff.png"
   inkscape:export-xdpi="96"
   inkscape:export-ydpi="96"
   xmlns:inkscape="http://www.inkscape.org/namespaces/inkscape"
   xmlns:sodipodi="http://sodipodi.sourceforge.net/DTD/sodipodi-0.dtd"
   xmlns="http://www.w3.org/2000/svg"
   xmlns:svg="http://www.w3.org/2000/svg"><defs
   id="defs13" /><sodipodi:namedview
   id="namedview11"
   pagecolor="#ffffff"
   bordercolor="#666666"
   borderopacity="1.0"
   inkscape:pageshadow="2"
   inkscape:pageopacity="0.0"
   inkscape:pagecheckerboard="0"
   showgrid="false"
   width="50px"
   inkscape:zoom="17.721864"
   inkscape:cx="14.614715"
   inkscape:cy="12.272975"
   inkscape:window-width="1920"
   inkscape:window-height="991"
   inkscape:window-x="-9"
   inkscape:window-y="-9"
   inkscape:window-maximized="1"
   inkscape:current-layer="_x32_" />
<style
   type="text/css"
   id="style2">
	.st0{fill:#4B4B4B;}
</style>
<g
   id="g8"
   transform="matrix(0.05813034,0,0,0.05813034,0.03654423,0.11285495)">
	<path
   class="st0"
   d="m 383.788,206.98 v 51.113 c -0.013,35.266 -14.301,67.108 -37.475,90.318 -23.212,23.176 -55.042,37.464 -90.307,37.464 -35.267,0 -67.108,-14.288 -90.32,-37.464 C 142.512,325.2 128.224,293.359 128.212,258.093 V 206.98 H 90.503 v 51.113 c 0.036,84.93 64.21,154.935 146.649,164.337 V 512 h 37.709 V 422.43 C 357.287,413.028 421.46,343.023 421.497,258.093 V 206.98 Z"
   style="fill:#389b72"
   id="path4" />
	<path
   class="st0"
   d="m 256.006,344.41 c 47.589,0 86.305,-38.728 86.305,-86.318 V 86.318 C 342.311,38.728 303.596,0 256.006,0 208.416,0 169.688,38.728 169.688,86.318 v 171.775 c 0,47.589 38.728,86.317 86.318,86.317 z"
   style="fill:#389b72"
   id="path6" />
</g>
<path
   style="fill:none;stroke:#389b72;stroke-width:1.6;stroke-linecap:butt;stroke-linejoin:miter;stroke-opacity:1;stroke-miterlimit:4;stroke-dasharray:none"
   d="M 4.6834802,2.4828088 25.335935,27.705889"
   id="path890" /></svg>
