<?xml version="1.0" encoding="UTF-8" standalone="no"?>
<!--?xml version="1.0" encoding="utf-8"?-->

<!-- Generator: Adobe Illustrator 18.1.1, SVG Export Plug-In . SVG Version: 6.00 Build 0)  -->

<svg
   version="1.1"
   id="_x32_"
   x="0px"
   y="0px"
   viewBox="0 0 30 30"
   style="opacity:1"
   xml:space="preserve"
   sodipodi:docname="share.svg"
   width="30"
   height="30"
   inkscape:version="1.1 (c68e22c387, 2021-05-23)"
   inkscape:export-filename="C:\xampp\htdocs\syuboard\project\images\telephone\share.png"
   inkscape:export-xdpi="96"
   inkscape:export-ydpi="96"
   xmlns:inkscape="http://www.inkscape.org/namespaces/inkscape"
   xmlns:sodipodi="http://sodipodi.sourceforge.net/DTD/sodipodi-0.dtd"
   xmlns="http://www.w3.org/2000/svg"
   xmlns:svg="http://www.w3.org/2000/svg"><defs
   id="defs15" /><sodipodi:namedview
   id="namedview13"
   pagecolor="#ffffff"
   bordercolor="#666666"
   borderopacity="1.0"
   inkscape:pageshadow="2"
   inkscape:pageopacity="0.0"
   inkscape:pagecheckerboard="0"
   showgrid="false"
   inkscape:zoom="11.313708"
   inkscape:cx="23.511302"
   inkscape:cy="26.5607"
   inkscape:window-width="1920"
   inkscape:window-height="991"
   inkscape:window-x="-9"
   inkscape:window-y="-9"
   inkscape:window-maximized="1"
   inkscape:current-layer="g935"
   width="30px" />
<style
   type="text/css"
   id="style2">
	.st0{fill:#4B4B4B;}
</style>

<style
   type="text/css"
   id="style912">

	.st0{fill:#4B4B4B;}

</style><g
   id="g935"
   transform="translate(36,-64)"><g
     id="g10"
     transform="matrix(0.0191735,0,0,0.01922953,-25.905465,72.607003)">
	<path
   class="st0"
   d="m 409.6,0.746 c -56.553,0 -102.4,45.842 -102.4,102.395 0,56.553 45.847,102.405 102.4,102.405 56.553,0 102.4,-45.852 102.4,-102.405 C 512,46.588 466.153,0.746 409.6,0.746 Z"
   style="fill:#389b72"
   id="path4" />
	<path
   class="st0"
   d="M 175.116,264.684 316.314,187.753 C 304.242,174.458 294.87,158.651 289.326,141.126 L 151.928,224.132 C 135.821,208.057 113.596,198.122 89.05,198.122 39.869,198.122 0,237.981 0,287.166 c 0,49.176 39.869,89.035 89.048,89.035 49.171,0 89.04,-39.859 89.04,-89.035 0,-7.783 -1.098,-15.28 -2.972,-22.482 z"
   style="fill:#389b72"
   id="path6" />
	<path
   class="st0"
   d="m 356.178,359.886 c -21.661,0 -41.143,9.15 -54.938,23.729 L 196.176,322.243 c -4.534,13.803 -11.629,26.443 -20.77,37.339 l 107.635,56.783 c -1.611,6.149 -2.553,12.558 -2.553,19.205 0,41.798 33.885,75.684 75.689,75.684 41.798,0 75.683,-33.886 75.683,-75.684 0,-41.798 -33.884,-75.684 -75.682,-75.684 z"
   style="fill:#389b72"
   id="path8" />
</g><g
     id="g916"
     transform="matrix(0.05752027,0,0,0.05522451,-35.685582,65.311504)">
	<path
   class="st0"
   d="M 488.188,41.797 H 23.813 C 10.719,41.797 0,52.516 0,65.609 v 311.969 c 0,13.094 10.719,23.813 23.813,23.813 h 152.375 v 46.016 h -31.031 v 22.797 h 221.688 v -22.797 h -31.031 v -46.016 h 152.375 c 13.094,0 23.813,-10.719 23.813,-23.813 V 65.609 C 512,52.516 501.281,41.797 488.188,41.797 Z m -7.157,319.125 H 30.953 V 72.766 h 450.078 z"
   style="fill:#389b72"
   id="path914" />
</g></g></svg>
